<svg xmlns="http://www.w3.org/2000/svg" xmlns:xlink="http://www.w3.org/1999/xlink" width="148.5" height="148" viewBox="0 0 148.5 148">
  <defs>
    <rect id="rect-1" width="128" height="128" x="0" y="0"/>
    <rect id="rect-2" width="128" height="128" x="0" y="0"/>
    <mask id="mask-3" maskContentUnits="userSpaceOnUse" maskUnits="userSpaceOnUse">
      <rect width="148.5" height="148" x="0" y="0" fill="black"/>
      <use fill="white" xlink:href="#rect-2"/>
    </mask>
  </defs>
  <g>
    <g>
      <use fill="none" xlink:href="#rect-2"/>
      <g mask="url(#mask-3)">
        <path fill="rgb(24,94,223)" fill-rule="evenodd" d="M123.42848206 32.00006104h-22.85704041V4.57150269C100.57144165 2.04669189 98.52474975 0 95.99993896 0H4.57151794C2.0466919 0 0 2.0466919 0 4.57150269v105.1427002C0 119.81323241 8.18678284 128 18.28579712 128h91.42840576C119.81321716 128 128 119.81323242 128 109.71420288v-73.1428833c0-2.52456665-2.0466919-4.57125854-4.57151794-4.57125854zm-86.85716248-9.1430359h27.42855835c2.5248108 0 4.57150269 2.0466919 4.57150269 4.5715027 0 2.5248413-2.0466919 4.5715332-4.57150269 4.5715332H36.57131958c-2.52482605 0-4.57151794-2.0466919-4.57151794-4.5715332 0-2.5248108 2.04696655-4.5715027 4.57151794-4.5715027zm73.1428833 95.99993897c5.04937744 0 9.14276123-4.09338379 9.14276123-9.14276123l.00027466-68.57138061h-18.28579712v68.57138061c0 5.04937744 4.09338379 9.14276123 9.14276123 9.14276123zM77.71414185 54.8571167H22.8570404c-2.52482605 0-4.57151795-2.0466919-4.57151795-4.5715332 0-2.5248108 2.0466919-4.57150269 4.57151795-4.57150269h54.85710144c2.52481079 0 4.57151794 2.0466919 4.57151794 4.57150269 0 2.5248413-2.04670715 4.5715332-4.57151794 4.5715332zM22.8570404 73.14291382h54.85710144c2.52481079 0 4.57151794-2.0466919 4.57151794-4.5715332 0-2.5248108-2.04670715-4.57150269-4.57151794-4.57150269H22.8570404c-2.52482605 0-4.57151795 2.0466919-4.57151795 4.57150269 0 2.5248413 2.0466919 4.5715332 4.57151795 4.5715332zm54.85710144 18.28552246H22.8570404c-2.52482605 0-4.57151795-2.0466919-4.57151795-4.5715332 0-2.5248108 2.0466919-4.57150269 4.57151795-4.57150269h54.85710144c2.52481079 0 4.57151794 2.0466919 4.57151794 4.57150269 0 2.5248413-2.04670715 4.5715332-4.57151794 4.5715332zm-54.85710144 18.2857666h54.85710144c2.52481079 0 4.57151794-2.0466919 4.57151794-4.5715332 0-2.5248108-2.04670715-4.57150269-4.57151794-4.57150269H22.8570404c-2.52482605 0-4.57151795 2.0466919-4.57151795 4.57150269 0 2.5248413 2.0466919 4.5715332 4.57151795 4.5715332z"/>
      </g>
    </g>
    <g>
      <path fill="rgb(17,204,236)" fill-rule="evenodd" d="M132.75 148h-52.5c-8.69925 0-15.75-7.05075-15.75-15.75v-52.5C64.5 71.05075 71.55075 64 80.25 64h52.5c8.69925 0 15.75 7.05075 15.75 15.75v52.5c0 8.69925-7.05075 15.75-15.75 15.75z"/>
      <path fill="rgb(255,255,255)" fill-rule="evenodd" d="M88.563375 98.999125c-1.6905 0-3.063375 1.3755-3.063375 3.063375v20.125875c0 1.687875 1.372875 3.063375 3.063375 3.063375C90.175125 124.9525 96 126.5275 96 122.188375V102.0625c0-4.381125-5.922-2.7825-7.436625-3.063375z"/>
      <path fill="rgb(255,255,255)" fill-rule="evenodd" d="M120.50175 100.311625h-8.260875s1.3125-2.625 1.3125-7.000875c0-5.25-3.9375-7.000875-5.688375-7.000875-1.750875 0-2.625.874125-2.625 5.25 0 4.158-4.02675 7.50225-6.617625 9.226875v21.679875c8.65725 4.00575 18.64275 3.073875 19.915875 3.21825 8.838375 0 7.032375-11.426625 8.854125-17.185875.74025-4.284-2.5515-8.187375-6.890625-8.187375z"/>
    </g>
  </g>
</svg>
